<?xml version="1.0" encoding="utf-8"?>
<!-- Generator: Adobe Illustrator 23.0.1, SVG Export Plug-In . SVG Version: 6.00 Build 0)  -->
<svg version="1.1" xmlns="http://www.w3.org/2000/svg" xmlns:xlink="http://www.w3.org/1999/xlink" x="0px" y="0px"
	 viewBox="0 0 482.5 197.5" style="enable-background:new 0 0 482.5 197.5;" xml:space="preserve">
<style type="text/css">
	.st0{fill:#2C496F;}
	.st1{fill:url(#SVGID_1_);}
	.st2{fill:url(#SVGID_2_);}
	.st3{fill:#FFFFFF;}
</style>
<g id="Layer_1">
	<polygon class="st0" points="482.5,197.5 39.1,197.5 48.8,173.1 482.5,173.1 	"/>
</g>
<g id="Layer_2">
	<g>
		
			<linearGradient id="SVGID_1_" gradientUnits="userSpaceOnUse" x1="149.2933" y1="-42.2243" x2="105.6841" y2="91.9908" gradientTransform="matrix(0.9991 4.288877e-02 -4.288877e-02 0.9991 -7.5533 64.9782)">
			<stop  offset="0" style="stop-color:#839BCF"/>
			<stop  offset="0.2607" style="stop-color:#8199CC"/>
			<stop  offset="0.4283" style="stop-color:#7991C4"/>
			<stop  offset="0.5697" style="stop-color:#6B85B5"/>
			<stop  offset="0.6965" style="stop-color:#5873A0"/>
			<stop  offset="0.8124" style="stop-color:#405C85"/>
			<stop  offset="0.8873" style="stop-color:#2C496F"/>
		</linearGradient>
		<path class="st1" d="M54.1,159.8l2.2,0.9l3.8-9.6l6,7.6l4.1-4.6l-7.6-9.5l2-5l8.7,11.1l4-4.6L67.2,133l7.1-18l5.1,9.3l7.1-8
			l1.3,8.9l-11.1,12.4l3.8,4.7l8.4-9.4l1.1,7.1l6-0.9L95,132l10.8,6.6l2.2-5.6l-14.2-8.6l-1.3-8.9l9.1,5.6l2.2-10.4l12,15.2l-6,15.3
			l5.2,3.3l5.1-13.1l3.4,4.2l-4.5,11.3l5.3,3.2l3.6-9.1l6.4,8.1l4.8-3.8l-6.4-8.1l9.6-1.4l-2-5.9l-12,1.8l-3.4-4.2l13.9-2l-2-5.8
			l-16.3,2.3l-12-15.1l10.7,0.2l-3.3-10.1l8.4,3.3l5.2,15.8l6-0.9l-4-12l6.6,2.6l2.2-5.6l-6.7-2.6l11.1-6.1l-3.8-4.7l-14.6,8
			l-8.4-3.3l9.4-5.1l-7.9-7.1l19.1-2.8L149,89l5.4-2.9l-8.8-11l5.3-0.8l7.6,9.5L164,81l-6.1-7.6l10.3-1.5l-0.9-6.1L157,67.3l3.6-9.1
			l-6-1.2l-4.5,11.3l-5.3,0.8l5.2-13.1l-6-1.2l-6.1,15.3L118.7,73l5.5-9.1l-10.5-2.2l7.1-5.6l16.2,3.4l2.2-5.6l-12.4-2.6l5.6-4.4
			l-3.8-4.7l-5.6,4.5l0.3-12.7l-6,0.9L117,51.4L110,57l0.2-10.7l-10.1,3.3l7.1-18l16.2-2.5l0.2-6.1l-13.9,2.1l2-5l12-1.8l0.2-6.2
			l-9.6,1.5l3.8-9.6l-2.2-0.9L54.1,159.8L54.1,159.8z M97.3,56.8L97.3,56.8l6.8-2.2l-0.2,7.2l-12.6,10L97.3,56.8L97.3,56.8z
			 M77.2,107.7L77.2,107.7l5.9-14.9l2.4,15.9l-4.8,5.4L77.2,107.7L77.2,107.7z M107.7,66.5L107.7,66.5l7.1,1.5l-3.7,6.1l-15.9,2.4
			L107.7,66.5L107.7,66.5z M91.4,107.8L91.4,107.8L89,91.9l10,12.6l-1.5,7L91.4,107.8L91.4,107.8z M111.9,80.2L111.9,80.2l5.4,4.8
			l-6.3,3.5L96,82.5L111.9,80.2L111.9,80.2z M103.8,100.7L103.8,100.7l-10-12.6l14.9,5.9l2.3,6.8L103.8,100.7L103.8,100.7z"/>
		
			<linearGradient id="SVGID_2_" gradientUnits="userSpaceOnUse" x1="66.8108" y1="-51.9151" x2="28.0591" y2="50.7384" gradientTransform="matrix(0.9991 4.288877e-02 -4.288877e-02 0.9991 -7.5533 64.9782)">
			<stop  offset="0" style="stop-color:#FFF200"/>
			<stop  offset="1" style="stop-color:#FFC10E"/>
		</linearGradient>
		<path class="st2" d="M66.5,49.6c-16.5,7.1-24,26.3-16.9,42.8c3.7,8.5,10.5,14.6,18.5,17.5L92,49.4C84.1,46.1,75,45.9,66.5,49.6
			L66.5,49.6z M66.1,115.1c-9.3-3.5-17.3-10.6-21.5-20.5c-8.4-19.3,0.5-41.7,19.8-50c9.9-4.3,20.5-4.1,29.7-0.2l16.8-42.6
			C99.1,5.2,92.9,17.3,92.9,29c0,3.3-1.7,5.4-4.1,5.1c-2.4-0.3-2.4-3.5-2-5.5C87.6,24.9,86,14.9,79,11c-2.3-1.2-3.4-1-2.3,1.6
			c2.5,6,1.1,9.3-1.7,12.5c-1.5,1.8-3.3,5.1-2.8,7.9c0.4,2.2-0.9,2.6-2.5,1.9c-1.6-0.7-3.2-3.9-2.7-8.8c1-8.4-6.2-18.3-13.5-20.4
			c-4-1.1-3.3,0.6-2.1,2.8c4,7.3,3.9,11.2,1.1,17.5c-3.4,7.4-2.1,10.8,0.9,13.5c2,1.8-0.2,3.9-2.3,1.1c-1.7-2.2-4.8-5.1-7.6-5.6
			c-2.9-0.6-5.1-3.3-5.7-7.2c-0.5-3-2-2.2-3-0.4c-1.5,2.9-2,8.4,0.4,13.3c1.6,3.3,4.5,5.9,7.3,7c2,0.7,2.4,2.3,1.7,3.2
			c-1,1.5-4.3,0.9-5.6-0.6c-4.4-4.9-8-6.1-15.7-3.7c-5.3,1.7-11.8,1.5-17.7-3c-3-2.3-4.7-1.1-3.9,2.5c2.8,12.9,15.7,20.8,28,20.3
			c3.4-0.2,5.7,0.9,5.4,3.4c-0.2,1.7-2.6,2.9-6,2.2C25,71.3,14.9,72.9,11,80c-1.3,2.3-1,3.4,1.6,2.3c6-2.5,9.5-1.3,12.5,1.7
			c2,2,3.9,4,7.6,3.8c3.3-0.1,3.8,2.3,0.4,2.9c-4.3,0.8-7.7,2.6-9.9,9.3c-2.2,6.5-4.9,9.5-12.7,12.1c-2.4,0.8-4.1,1.6-0.4,3.5
			c6.8,3.5,18.8,1.1,23.8-5.7c2.9-3.9,6.3-5.2,8-4.6c1.6,0.6,1.7,2.1-0.4,2.9c-2.9,1-5.1,3.9-6,6.6c-1,3.1-4.2,6.3-7.6,6.5
			c-3,0.2-2.2,2-0.4,3c2.9,1.5,8.4,2,13.3-0.4c3.3-1.6,5.9-4.5,7-7.3c0.7-1.9,3.5-2.9,4.1-1.1c0.7,1.8,0,3.6-1.5,5
			c-4.9,4.4-6.1,8-3.7,15.7c1.7,5.3,1.5,11.8-3,17.7c-2.3,3-1.1,4.7,2.5,3.9c1.2-0.3,2.3-0.6,3.4-1L66.1,115.1L66.1,115.1z"/>
	</g>
	<g>
		<path class="st0" d="M185,126.9h-7.6l-1.4,4.9h-1.8l6-20h2l6,20h-1.8L185,126.9z M177.8,125.4h6.9l-3.4-11.8L177.8,125.4z"/>
		<path class="st0" d="M190.7,111.8h1.5v20h-1.5V111.8z"/>
		<path class="st0" d="M203.9,130.2c-1,1.4-2.3,2-3.8,2c-2.4,0-4.3-1.8-4.3-4.8s2-4.8,4.3-4.8c1.5,0,2.9,0.6,3.8,2v-2.8
			c0-2.2-1.1-3.4-3.1-3.4c-1.4,0-2.5,0.5-3.7,1.9l-0.8-1.1c1.3-1.4,2.8-2.1,4.6-2.1c2.8,0,4.4,1.4,4.4,4.6v10.3h-1.5V130.2z
			 M203.9,125.8c-0.8-1.4-2-2-3.4-2c-2,0-3.2,1.6-3.2,3.6c0,2,1.2,3.6,3.2,3.6c1.4,0,2.6-0.7,3.4-2V125.8z"/>
		<path class="st0" d="M209.4,129c0.8,1,2.1,1.8,3.7,1.8c1.8,0,3.1-1,3.1-2.6c0-1.8-1.6-2.5-3.2-3.2c-1.9-0.8-4-1.7-4-4.3
			c0-2.1,1.7-3.7,4.3-3.7c1.9,0,3.2,0.8,4.1,1.9l-0.8,1c-0.8-1-1.9-1.6-3.3-1.6c-1.8,0-2.8,1-2.8,2.3c0,1.6,1.5,2.3,3.1,3
			c2,0.8,4.2,1.8,4.2,4.6c0,2.3-1.7,4-4.5,4c-2,0-3.4-0.6-4.6-2L209.4,129z"/>
		<path class="st0" d="M224.8,124.9l-2.3,2.8v4.1H221v-20h1.5v13.9l6.7-8.4h1.8l-5.2,6.5l5.2,7.9h-1.8L224.8,124.9z"/>
		<path class="st0" d="M241.1,130.2c-1,1.4-2.3,2-3.8,2c-2.4,0-4.3-1.8-4.3-4.8s2-4.8,4.3-4.8c1.5,0,2.9,0.6,3.8,2v-2.8
			c0-2.2-1.1-3.4-3.1-3.4c-1.4,0-2.5,0.5-3.7,1.9l-0.8-1.1c1.3-1.4,2.8-2.1,4.6-2.1c2.8,0,4.4,1.4,4.4,4.6v10.3h-1.5V130.2z
			 M241.1,125.8c-0.8-1.4-2-2-3.4-2c-2,0-3.2,1.6-3.2,3.6c0,2,1.2,3.6,3.2,3.6c1.4,0,2.6-0.7,3.4-2V125.8z"/>
		<path class="st0" d="M252.8,121.8c0-6,2.9-10.3,7.4-10.3c2.7,0,4.4,1.6,5.5,3.5l-1.4,0.7c-0.9-1.6-2.3-2.7-4.1-2.7
			c-3.4,0-5.7,3.7-5.7,8.8c0,5.1,2.2,8.8,5.7,8.8c2,0,3.3-1.3,4.2-3l1.4,0.7c-1.1,2.2-2.8,3.8-5.6,3.8
			C255.7,132.2,252.8,127.8,252.8,121.8z"/>
		<path class="st0" d="M274,117c3.8,0,5.5,3.5,5.5,7.6v0.5H270c0.1,3.3,1.7,5.8,4.4,5.8c1.3,0,2.6-0.7,3.6-2l0.9,0.9
			c-1.1,1.5-2.6,2.4-4.6,2.4c-3.8,0-6-3.2-6-7.6C268.4,120.3,270.5,117,274,117z M270,123.9h8c0-2.5-1.1-5.6-4-5.6
			C271.2,118.2,270,121.5,270,123.9z"/>
		<path class="st0" d="M290.7,121.2c0-2.1-0.9-2.8-2.5-2.8c-1.5,0-3,1.2-3.7,2.5v10.9H283v-14.5h1.5v2.1c0.9-1.3,2.5-2.5,4.2-2.5
			c2.4,0,3.5,1.2,3.5,3.9v10.9h-1.5V121.2z"/>
		<path class="st0" d="M296.8,129.1v-10.5h-2v-1.3h2v-4h1.5v4h2.5v1.3h-2.5V129c0,1.2,0.4,1.9,1.3,1.9c0.5,0,1-0.3,1.3-0.7l0.6,1.1
			c-0.5,0.5-1.1,0.9-2.2,0.9C297.6,132.2,296.8,131.1,296.8,129.1z"/>
		<path class="st0" d="M308.8,117c3.8,0,5.5,3.5,5.5,7.6v0.5h-9.5c0.1,3.3,1.7,5.8,4.4,5.8c1.3,0,2.6-0.7,3.6-2l0.9,0.9
			c-1.1,1.5-2.6,2.4-4.6,2.4c-3.8,0-6-3.2-6-7.6C303.2,120.3,305.3,117,308.8,117z M304.8,123.9h8c0-2.5-1.1-5.6-4-5.6
			C306,118.2,304.9,121.5,304.8,123.9z"/>
		<path class="st0" d="M317.8,117.3h1.5v2.5c1-1.6,2.3-2.8,4.2-2.8v1.6c-0.2,0-0.4,0-0.7,0c-1.4,0-2.9,1.3-3.5,2.6v10.6h-1.5V117.3z
			"/>
		<path class="st0" d="M333.1,118.7h-1.9v-1.3h1.9v-2.1c0-2.3,1.3-3.8,3.2-3.8c0.6,0,1.2,0.1,1.6,0.4l-0.5,1.2
			c-0.3-0.2-0.6-0.3-1-0.3c-1.2,0-1.9,0.9-1.9,2.4v2.1h2.5v1.3h-2.5v13.1h-1.5V118.7z"/>
		<path class="st0" d="M339.2,124.5c0-4.1,1.9-7.6,5.6-7.6c3.7,0,5.6,3.5,5.6,7.6c0,4.1-1.9,7.6-5.6,7.6
			C341.1,132.2,339.2,128.7,339.2,124.5z M348.7,124.5c0-3.1-1.2-6.2-4-6.2c-2.7,0-4,3.1-4,6.2c0,3.2,1.2,6.3,4,6.3
			C347.5,130.8,348.7,127.7,348.7,124.5z"/>
		<path class="st0" d="M353.9,117.3h1.5v2.5c1-1.6,2.3-2.8,4.2-2.8v1.6c-0.2,0-0.4,0-0.7,0c-1.4,0-2.9,1.3-3.5,2.6v10.6h-1.5V117.3z
			"/>
		<path class="st0" d="M368.3,121.8c0-6,2.9-10.3,7.4-10.3c2.7,0,4.4,1.6,5.5,3.5l-1.4,0.7c-0.9-1.6-2.3-2.7-4.1-2.7
			c-3.4,0-5.7,3.7-5.7,8.8c0,5.1,2.2,8.8,5.7,8.8c2,0,3.3-1.3,4.2-3l1.4,0.7c-1.1,2.2-2.8,3.8-5.6,3.8
			C371.1,132.2,368.3,127.8,368.3,121.8z"/>
		<path class="st0" d="M384.5,111.8h1.5v20h-1.5V111.8z"/>
		<path class="st0" d="M389.8,113.7c0-0.7,0.5-1.2,1.2-1.2s1.2,0.5,1.2,1.2s-0.5,1.2-1.2,1.2S389.8,114.3,389.8,113.7z M390.2,117.3
			h1.5v14.5h-1.5V117.3z"/>
		<path class="st0" d="M410.3,121c0-1.7-0.7-2.7-2.2-2.7c-1.4,0-2.8,1.2-3.4,2.5v10.9h-1.5V121c0-1.7-0.7-2.7-2.2-2.7
			c-1.4,0-2.8,1.3-3.5,2.5v10.9H396v-14.5h1.5v2.1c0.6-1.1,2.2-2.5,3.9-2.5c1.9,0,2.9,1.1,3.2,2.6c0.7-1.3,2.3-2.6,4-2.6
			c2.1,0,3.2,1.2,3.2,3.8v11.1h-1.5V121z"/>
		<path class="st0" d="M423.5,130.2c-1,1.4-2.3,2-3.8,2c-2.4,0-4.3-1.8-4.3-4.8s2-4.8,4.3-4.8c1.5,0,2.9,0.6,3.8,2v-2.8
			c0-2.2-1.1-3.4-3.1-3.4c-1.4,0-2.5,0.5-3.7,1.9l-0.8-1.1c1.3-1.4,2.8-2.1,4.6-2.1c2.8,0,4.4,1.4,4.4,4.6v10.3h-1.5V130.2z
			 M423.5,125.8c-0.8-1.4-2-2-3.4-2c-2,0-3.2,1.6-3.2,3.6c0,2,1.2,3.6,3.2,3.6c1.4,0,2.6-0.7,3.4-2V125.8z"/>
		<path class="st0" d="M429.6,129.1v-10.5h-2v-1.3h2v-4h1.5v4h2.5v1.3h-2.5V129c0,1.2,0.4,1.9,1.3,1.9c0.5,0,1-0.3,1.3-0.7l0.6,1.1
			c-0.5,0.5-1.1,0.9-2.2,0.9C430.4,132.2,429.6,131.1,429.6,129.1z"/>
		<path class="st0" d="M441.6,117c3.8,0,5.5,3.5,5.5,7.6v0.5h-9.5c0.1,3.3,1.7,5.8,4.4,5.8c1.3,0,2.6-0.7,3.6-2l0.9,0.9
			c-1.1,1.5-2.6,2.4-4.6,2.4c-3.8,0-6-3.2-6-7.6C436,120.3,438.1,117,441.6,117z M437.6,123.9h8c0-2.5-1.1-5.6-4-5.6
			C438.8,118.2,437.7,121.5,437.6,123.9z"/>
		<path class="st0" d="M185,156.2h-7.6l-1.4,4.9h-1.8l6-20h2l6,20h-1.8L185,156.2z M177.8,154.7h6.9l-3.4-11.8L177.8,154.7z"/>
		<path class="st0" d="M190.4,158.3c0.8,1,2.1,1.8,3.7,1.8c1.8,0,3.1-1,3.1-2.6c0-1.8-1.6-2.5-3.2-3.2c-1.9-0.8-4-1.7-4-4.3
			c0-2.1,1.7-3.7,4.3-3.7c1.9,0,3.2,0.8,4.1,1.9l-0.8,1c-0.8-1-1.9-1.6-3.3-1.6c-1.8,0-2.8,1-2.8,2.3c0,1.6,1.5,2.3,3.1,3
			c2,0.8,4.2,1.8,4.2,4.6c0,2.3-1.7,4-4.5,4c-2,0-3.4-0.6-4.6-2L190.4,158.3z"/>
		<path class="st0" d="M201.7,158.3c0.8,1,2.1,1.8,3.7,1.8c1.8,0,3.1-1,3.1-2.6c0-1.8-1.6-2.5-3.2-3.2c-1.9-0.8-4-1.7-4-4.3
			c0-2.1,1.7-3.7,4.3-3.7c1.9,0,3.2,0.8,4.1,1.9l-0.8,1c-0.8-1-1.9-1.6-3.3-1.6c-1.8,0-2.8,1-2.8,2.3c0,1.6,1.5,2.3,3.1,3
			c2,0.8,4.2,1.8,4.2,4.6c0,2.3-1.7,4-4.5,4c-2,0-3.4-0.6-4.6-2L201.7,158.3z"/>
		<path class="st0" d="M218.3,146.3c3.8,0,5.5,3.5,5.5,7.6v0.5h-9.5c0.1,3.3,1.7,5.8,4.4,5.8c1.3,0,2.6-0.7,3.6-2l0.9,0.9
			c-1.1,1.5-2.6,2.4-4.6,2.4c-3.8,0-6-3.2-6-7.6C212.7,149.6,214.8,146.3,218.3,146.3z M214.2,153.2h8c0-2.5-1.1-5.6-4-5.6
			C215.4,147.5,214.3,150.8,214.2,153.2z"/>
		<path class="st0" d="M226.9,158.3c0.8,1,2.1,1.8,3.7,1.8c1.8,0,3.1-1,3.1-2.6c0-1.8-1.6-2.5-3.2-3.2c-1.9-0.8-4-1.7-4-4.3
			c0-2.1,1.7-3.7,4.3-3.7c1.9,0,3.2,0.8,4.1,1.9l-0.8,1c-0.8-1-1.9-1.6-3.3-1.6c-1.8,0-2.8,1-2.8,2.3c0,1.6,1.5,2.3,3.1,3
			c2,0.8,4.2,1.8,4.2,4.6c0,2.3-1.7,4-4.5,4c-2,0-3.4-0.6-4.6-2L226.9,158.3z"/>
		<path class="st0" d="M238.2,158.3c0.8,1,2.1,1.8,3.7,1.8c1.8,0,3.1-1,3.1-2.6c0-1.8-1.6-2.5-3.2-3.2c-1.9-0.8-4-1.7-4-4.3
			c0-2.1,1.7-3.7,4.3-3.7c1.9,0,3.2,0.8,4.1,1.9l-0.8,1c-0.8-1-1.9-1.6-3.3-1.6c-1.8,0-2.8,1-2.8,2.3c0,1.6,1.5,2.3,3.1,3
			c2,0.8,4.2,1.8,4.2,4.6c0,2.3-1.7,4-4.5,4c-2,0-3.4-0.6-4.6-2L238.2,158.3z"/>
		<path class="st0" d="M264.2,150.3c0-1.7-0.7-2.7-2.2-2.7c-1.4,0-2.8,1.2-3.4,2.5v10.9H257v-10.8c0-1.7-0.7-2.7-2.2-2.7
			c-1.4,0-2.8,1.3-3.5,2.5v10.9h-1.5v-14.5h1.5v2.1c0.6-1.1,2.2-2.5,3.9-2.5c1.9,0,2.9,1.1,3.2,2.6c0.7-1.3,2.3-2.6,4-2.6
			c2.1,0,3.2,1.2,3.2,3.8v11.1h-1.5V150.3z"/>
		<path class="st0" d="M274.8,146.3c3.8,0,5.5,3.5,5.5,7.6v0.5h-9.5c0.1,3.3,1.7,5.8,4.4,5.8c1.3,0,2.6-0.7,3.6-2l0.9,0.9
			c-1.1,1.5-2.6,2.4-4.6,2.4c-3.8,0-6-3.2-6-7.6C269.2,149.6,271.3,146.3,274.8,146.3z M270.8,153.2h8c0-2.5-1.1-5.6-4-5.6
			C272,147.5,270.9,150.8,270.8,153.2z"/>
		<path class="st0" d="M291.5,150.5c0-2.1-0.9-2.8-2.5-2.8c-1.5,0-3,1.2-3.7,2.5v10.9h-1.5v-14.5h1.5v2.1c0.9-1.3,2.5-2.5,4.2-2.5
			c2.4,0,3.5,1.2,3.5,3.9v10.9h-1.5V150.5z"/>
		<path class="st0" d="M297.7,158.4V148h-2v-1.3h2v-4h1.5v4h2.5v1.3h-2.5v10.3c0,1.2,0.4,1.9,1.3,1.9c0.5,0,1-0.3,1.3-0.7l0.6,1.1
			c-0.5,0.5-1.1,0.9-2.2,0.9C298.5,161.5,297.7,160.4,297.7,158.4z"/>
		<path class="st0" d="M318.7,159.5c-1,1.4-2.3,2-3.8,2c-2.4,0-4.3-1.8-4.3-4.8s2-4.8,4.3-4.8c1.5,0,2.9,0.6,3.8,2v-2.8
			c0-2.2-1.1-3.4-3.1-3.4c-1.4,0-2.5,0.5-3.7,1.9l-0.8-1.1c1.3-1.4,2.8-2.1,4.6-2.1c2.8,0,4.4,1.4,4.4,4.6v10.3h-1.5V159.5z
			 M318.7,155.1c-0.8-1.4-2-2-3.4-2c-2,0-3.2,1.6-3.2,3.6c0,2,1.2,3.6,3.2,3.6c1.4,0,2.6-0.7,3.4-2V155.1z"/>
		<path class="st0" d="M332.2,150.5c0-2.1-0.9-2.8-2.5-2.8c-1.5,0-3,1.2-3.7,2.5v10.9h-1.5v-14.5h1.5v2.1c0.9-1.3,2.5-2.5,4.2-2.5
			c2.4,0,3.5,1.2,3.5,3.9v10.9h-1.5V150.5z"/>
		<path class="st0" d="M346.3,158.9c-0.8,1.5-2.3,2.5-3.9,2.5c-3.3,0-5.1-3.1-5.1-7.6c0-4.4,1.9-7.6,5.1-7.6c1.5,0,3,0.9,3.9,2.6
			v-7.7h1.5v20h-1.5V158.9z M346.3,150.3c-0.6-1.4-2.1-2.7-3.6-2.7c-2.6,0-3.8,2.9-3.8,6.3s1.2,6.2,3.8,6.2c1.5,0,3-1.3,3.6-2.7
			V150.3z"/>
		<path class="st0" d="M358.7,141.1h5.5c3.5,0,5.2,2.7,5.2,5.8c0,3.1-1.8,5.8-5.2,5.8h-3.8v8.3h-1.7V141.1z M364.1,142.6h-3.7v8.7
			h3.7c2.3,0,3.6-1.8,3.6-4.3C367.7,144.4,366.4,142.6,364.1,142.6z"/>
		<path class="st0" d="M371.5,153.8c0-4.1,1.9-7.6,5.6-7.6c3.7,0,5.6,3.5,5.6,7.6c0,4.1-1.9,7.6-5.6,7.6
			C373.4,161.5,371.5,158,371.5,153.8z M381,153.8c0-3.1-1.2-6.2-4-6.2c-2.7,0-4,3.1-4,6.2c0,3.2,1.2,6.3,4,6.3
			C379.8,160.1,381,157,381,153.8z"/>
		<path class="st0" d="M386.2,141.1h1.5v20h-1.5V141.1z"/>
		<path class="st0" d="M391.6,143c0-0.7,0.5-1.2,1.2-1.2s1.2,0.5,1.2,1.2s-0.5,1.2-1.2,1.2S391.6,143.6,391.6,143z M392,146.6h1.5
			v14.5H392V146.6z"/>
		<path class="st0" d="M402.8,146.3c1.9,0,3,0.8,3.9,1.9l-0.9,1c-0.8-1.1-1.8-1.6-2.9-1.6c-2.8,0-4.2,2.9-4.2,6.2
			c0,3.3,1.4,6.3,4.2,6.3c1.1,0,2.1-0.5,2.9-1.6l0.9,1c-0.9,1.2-2,1.9-3.9,1.9c-3.6,0-5.7-3.4-5.7-7.6
			C397,149.6,399.1,146.3,402.8,146.3z"/>
		<path class="st0" d="M410,165.6c0.8,0,1.3-0.4,1.8-1.6l0.9-2.6l-4.8-14.8h1.7l3.9,12.6l3.9-12.6h1.7l-5.9,17.8
			c-0.6,1.9-1.6,2.6-3.1,2.6c-0.4,0-1-0.1-1.3-0.2l0.3-1.4C409.3,165.5,409.8,165.6,410,165.6z"/>
	</g>
	<g>
		<path class="st3" d="M331.6,190.9h-4.3l-0.8,2.8h-1l3.4-11.2h1.1l3.4,11.2h-1L331.6,190.9z M327.6,190.1h3.8l-1.9-6.6L327.6,190.1
			z"/>
		<path class="st3" d="M342.2,180.1v13.6h-1.4v-16.4h1.4l7.2,13.4v-13.4h1.4v16.4h-1.3L342.2,180.1z"/>
		<path class="st3" d="M358.9,177c3.8,0,5.9,3.8,5.9,8.5s-2.1,8.5-5.9,8.5c-3.9,0-5.9-3.8-5.9-8.5S355,177,358.9,177z M358.9,178.3
			c-2.9,0-4.5,3.2-4.5,7.2c0,4,1.6,7.2,4.5,7.2c2.9,0,4.5-3.2,4.5-7.2C363.4,181.5,361.8,178.3,358.9,178.3z"/>
		<path class="st3" d="M374.3,189.6h-6.2l-1.2,4h-1.4l4.9-16.4h1.6l4.9,16.4h-1.4L374.3,189.6z M368.4,188.4h5.6l-2.8-9.6
			L368.4,188.4z"/>
		<path class="st3" d="M387.8,189.6h-6.2l-1.2,4H379l4.9-16.4h1.6l4.9,16.4H389L387.8,189.6z M381.9,188.4h5.6l-2.8-9.6L381.9,188.4
			z"/>
		<path class="st3" d="M401.9,186.9h-2.6v6.8h-1.4v-16.4h4.5c2.5,0,4.3,1.8,4.3,4.8c0,3-1.7,4.4-3.4,4.6l3.6,7h-1.6L401.9,186.9z
			 M402.4,178.5h-3v7.1h3c1.9,0,3-1.5,3-3.5C405.3,180,404.2,178.5,402.4,178.5z"/>
		<path class="st3" d="M410,177.3h1.4v16.4H410V177.3z"/>
		<path class="st3" d="M414.4,190.9c0.8,1,2.1,1.8,3.8,1.8c2.3,0,3.3-1.5,3.3-3c0-2.1-1.7-3-3.4-3.9c-1.9-1-4-1.9-4-4.6
			c0-2.5,2-4.1,4.4-4.1c1.7,0,3.1,0.6,4.1,1.7l-0.8,1c-0.9-1-2-1.5-3.4-1.5c-1.6,0-3,1.1-3,2.8c0,1.8,1.6,2.6,3.2,3.4
			c2,1,4.2,2.1,4.2,5.1c0,2.2-1.4,4.4-4.7,4.4c-2,0-3.6-0.8-4.6-2L414.4,190.9z"/>
		<path class="st3" d="M433.6,189.6h-6.2l-1.2,4h-1.4l4.9-16.4h1.6l4.9,16.4h-1.4L433.6,189.6z M427.7,188.4h5.6l-2.8-9.6
			L427.7,188.4z"/>
		<path class="st3" d="M445.1,183.3h-2.7v-0.8h6.4v0.8H446v10.3h-0.9V183.3z"/>
		<path class="st3" d="M451.1,182.5h5.5v0.8H452v4.2h4.4v0.8H452v4.5h4.5v0.8h-5.5V182.5z"/>
		<path class="st3" d="M464,190.9h-4.3l-0.8,2.8h-1l3.4-11.2h1.1l3.4,11.2h-1L464,190.9z M460,190.1h3.8l-1.9-6.6L460,190.1z"/>
		<path class="st3" d="M475.2,184l-3.2,9.7h-0.4l-3.1-9.7v9.7h-0.9v-11.2h1.4l2.9,8.9l2.9-8.9h1.3v11.2h-0.9V184z"/>
	</g>
</g>
<g id="_x3C_Layer_x3E_">
	<g>
		<path class="st0" d="M216.4,81.3h-18.8l-2.4,15.4h-21l20.4-95.1h24.8l20.4,95.1h-21L216.4,81.3z M200,62.5h14l-7-41.9L200,62.5z"
			/>
		<path class="st0" d="M236.6,49.2c0-28.8,10-49.2,32.4-49.2c17.1,0,22.8,13.7,26,24.5l-17.1,6.3c-1.6-7.3-3.7-11.7-8.8-11.7
			c-7.7,0-10.3,12.3-10.3,30.1s2.6,30.1,10.3,30.1c5.6,0,8-5.8,9-13.5l17.1,6.1c-2.7,11.3-8.4,26.5-26.1,26.5
			C246.6,98.4,236.6,77.9,236.6,49.2z"/>
		<path class="st0" d="M297.2,49.2c0-28.8,10-49.2,32.4-49.2c17.1,0,22.8,13.7,26,24.5l-17.1,6.3c-1.6-7.3-3.7-11.7-8.8-11.7
			c-7.7,0-10.3,12.3-10.3,30.1s2.6,30.1,10.3,30.1c5.6,0,8-5.8,9-13.5l17.1,6.1c-2.7,11.3-8.4,26.5-26.1,26.5
			C307.2,98.4,297.2,77.9,297.2,49.2z"/>
		<path class="st0" d="M397.6,81.3h-18.8l-2.4,15.4h-21l20.4-95.1h24.8L421,96.7h-21L397.6,81.3z M381.2,62.5h14l-7-41.9L381.2,62.5
			z"/>
		<path class="st0" d="M424.5,1.6h28.7c19.8,0,28.9,14.5,28.9,30.9c0,16.4-9.1,30.8-28.9,30.8H446v33.4h-21.5V1.6z M450.7,20.4H446
			v24.1h4.7c5.8,0,9.4-4.7,9.4-12.1C460.1,25.1,456.5,20.4,450.7,20.4z"/>
	</g>
</g>
</svg>
